<?xml version="1.0" standalone="no"?>
<!DOCTYPE svg PUBLIC "-//W3C//DTD SVG 20010904//EN"
 "http://www.w3.org/TR/2001/REC-SVG-20010904/DTD/svg10.dtd">
<svg version="1.0" xmlns="http://www.w3.org/2000/svg"
 width="700.000000pt" height="700.000000pt" viewBox="0 0 700.000000 700.000000"
 preserveAspectRatio="xMidYMid meet">
<metadata>
Created by potrace 1.14, written by Peter Selinger 2001-2017
</metadata>
<g transform="translate(0.000000,700.000000) scale(0.100000,-0.100000)"
fill="#000000" stroke="none">
<path d="M3130 5964 c-923 -82 -1365 -222 -1670 -527 -122 -122 -251 -327
-305 -487 -55 -161 -101 -425 -132 -760 -21 -228 -24 -866 -5 -1135 27 -377
76 -730 128 -923 86 -318 327 -609 631 -761 234 -117 615 -203 1108 -251 455
-44 1131 -27 1565 40 544 84 826 196 1066 423 172 163 289 355 344 567 55 214
112 640 131 988 35 625 -38 1483 -153 1811 -123 350 -379 621 -729 772 -153
67 -445 143 -699 183 -290 46 -449 57 -845 61 -214 1 -410 1 -435 -1z m786
-439 c22 -34 31 -254 15 -351 -27 -158 -163 -349 -294 -414 -131 -64 -253 -63
-341 5 -52 40 -40 49 -147 -110 -83 -123 -205 -255 -236 -255 -11 0 -33 10
-48 22 -24 18 -27 26 -22 60 7 49 43 95 210 265 l130 132 -13 45 c-25 91 10
205 94 307 66 80 157 150 234 180 73 28 184 32 227 7 75 -43 74 -42 94 -24 28
26 35 70 18 106 -14 27 -14 31 1 40 30 17 61 11 78 -15z m-2221 -1310 c22 -11
63 -42 91 -70 72 -71 84 -114 84 -291 0 -137 -1 -144 -24 -171 -22 -25 -30
-28 -90 -28 -57 0 -69 3 -91 25 -24 24 -25 32 -28 154 -2 121 -3 129 -26 147
-33 27 -83 25 -113 -6 -24 -24 -25 -33 -32 -181 -4 -86 -4 -295 0 -463 l7
-306 33 -32 c38 -39 81 -44 110 -12 16 18 20 42 24 161 5 132 6 141 29 159 36
29 131 27 168 -5 l28 -24 0 -194 c-1 -169 -3 -197 -19 -228 -37 -69 -77 -109
-141 -141 -62 -30 -68 -31 -162 -27 -76 3 -108 9 -140 26 -60 31 -106 74 -144
134 l-34 52 0 541 0 540 31 66 c46 96 115 158 214 190 44 15 181 4 225 -16z
m862 -16 c68 -33 120 -86 158 -160 l24 -47 -6 -548 -6 -549 -30 -58 c-36 -68
-81 -111 -157 -146 -48 -23 -68 -26 -160 -26 -92 0 -112 3 -160 26 -70 33
-116 79 -149 149 l-26 55 0 545 c0 598 -1 585 61 671 70 97 155 132 299 123
72 -4 102 -11 152 -35z m1363 16 c15 -8 31 -22 35 -32 5 -10 10 -340 13 -734
l4 -715 -25 -30 c-24 -27 -30 -29 -101 -29 -65 0 -79 3 -98 23 -22 22 -23 30
-28 250 l-5 227 -64 -93 c-77 -112 -116 -142 -184 -142 -88 0 -162 52 -232
162 -17 27 -33 48 -37 48 -5 0 -8 -97 -8 -215 0 -200 -1 -216 -19 -234 -24
-24 -77 -35 -137 -28 -83 9 -80 -4 -87 357 -4 177 -4 508 0 736 7 494 -3 457
126 462 145 6 143 10 287 -368 79 -207 106 -270 114 -270 3 0 12 24 22 53 50
153 199 525 218 545 48 50 139 62 206 27z m1627 -8 c60 -31 107 -84 128 -146
28 -81 125 -999 128 -1208 l2 -102 -32 -33 c-31 -30 -36 -32 -109 -32 -76 -1
-78 0 -95 29 -10 17 -21 58 -24 90 -3 33 -8 75 -11 93 l-5 32 -118 0 -118 0
-12 -87 c-12 -95 -26 -124 -74 -153 -38 -23 -75 -25 -121 -6 -47 20 -66 51
-66 111 0 66 120 1004 155 1207 27 161 40 187 110 220 59 28 191 20 262 -15z
m-896 -14 c76 -38 157 -112 191 -174 l23 -44 3 -550 c4 -614 1 -684 -31 -721
-20 -22 -30 -25 -90 -25 -82 0 -103 6 -120 34 -9 17 -13 169 -17 625 l-5 604
-33 29 c-41 37 -89 39 -129 5 l-28 -24 -3 -621 -3 -620 -26 -21 c-31 -24 -116
-27 -167 -6 -29 12 -34 19 -39 61 -4 26 -7 349 -7 717 0 599 2 674 16 704 28
59 48 64 234 62 164 -3 166 -3 231 -35z m-1155 -294 c19 -22 19 -22 -3 -10
-13 6 -23 16 -23 21 0 15 5 12 26 -11z m1122 -1381 c22 -18 13 -76 -32 -216
-71 -217 -93 -322 -67 -322 15 0 69 61 82 94 33 81 69 105 104 66 16 -17 17
-25 6 -59 -17 -59 -82 -149 -131 -182 -74 -50 -154 -33 -186 40 l-17 39 -51
-38 c-50 -38 -94 -60 -120 -60 -8 0 -27 14 -44 31 l-29 30 -38 -25 c-49 -34
-98 -34 -130 -1 -14 13 -25 31 -25 40 0 22 -5 20 -61 -25 -65 -51 -116 -67
-155 -49 -40 19 -52 50 -60 151 -4 58 -10 88 -18 85 -6 -2 -46 -47 -90 -101
-82 -103 -123 -136 -168 -136 -71 0 -108 46 -108 133 0 80 -10 119 -29 115 -9
-2 -41 -49 -71 -105 -30 -56 -64 -111 -74 -122 -24 -27 -54 -27 -82 0 l-23 21
-44 -21 c-51 -25 -75 -26 -122 -7 -58 24 -69 53 -62 161 3 57 2 95 -4 95 -5 0
-34 -37 -63 -83 -87 -134 -156 -181 -272 -182 -92 0 -140 29 -179 109 -36 74
-33 164 8 248 62 128 194 209 285 177 68 -23 62 -79 -8 -79 -37 0 -93 -33
-132 -76 -44 -50 -62 -160 -35 -213 6 -14 27 -33 44 -44 62 -36 123 -1 207
117 24 34 63 79 85 99 35 32 48 37 89 37 30 0 59 -8 81 -21 l33 -20 -7 -97
c-5 -79 -4 -101 9 -117 14 -19 17 -19 43 -5 17 9 47 48 75 95 86 147 126 179
172 136 l24 -22 33 20 c44 27 66 26 112 -4 l37 -26 -7 -106 c-8 -143 5 -137
127 58 25 40 59 80 75 90 43 27 107 25 141 -4 25 -22 28 -32 35 -128 9 -122 5
-106 25 -113 27 -10 57 17 123 113 34 50 77 103 96 117 68 52 177 38 210 -27
9 -16 15 -58 16 -96 1 -77 9 -115 26 -120 18 -6 83 66 109 121 13 28 49 129
80 225 31 95 65 182 76 193 19 19 48 18 76 -4z m459 -314 c51 -14 33 -74 -22
-74 -18 0 -40 3 -49 6 -23 9 -20 40 6 58 25 17 32 19 65 10z m-3158 -13 c12
-8 12 -13 -3 -36 -14 -20 -24 -26 -48 -23 -34 3 -55 27 -45 52 7 18 71 22 96
7z"/>
<path d="M2343 3990 c-17 -10 -37 -28 -42 -39 -7 -13 -11 -175 -11 -483 0
-497 -1 -486 50 -525 44 -35 116 -17 139 34 15 33 15 943 0 976 -12 27 -58 57
-86 57 -10 0 -32 -9 -50 -20z"/>
<path d="M5411 3966 c-6 -7 -15 -46 -21 -87 -10 -78 -60 -552 -60 -575 0 -11
21 -14 95 -14 92 0 95 1 95 23 0 42 -60 625 -66 640 -8 22 -31 28 -43 13z"/>
<path d="M4081 2134 c-40 -51 -54 -139 -21 -139 23 0 60 75 60 123 0 48 -10
53 -39 16z"/>
<path d="M2148 1023 c7 -3 16 -2 19 1 4 3 -2 6 -13 5 -11 0 -14 -3 -6 -6z"/>
<path d="M2223 1004 c53 -16 63 -29 17 -22 -17 3 -33 1 -36 -4 -3 -5 -12 -4
-19 2 -9 8 -15 8 -20 0 -3 -5 -11 -10 -16 -10 -6 0 -7 6 -2 13 4 6 -5 4 -21
-6 -18 -12 -37 -16 -52 -13 -15 4 -24 2 -24 -6 0 -9 -3 -9 -12 0 -14 14 -68
16 -68 2 0 -5 5 -10 10 -10 6 0 10 -5 10 -11 0 -7 -9 -5 -24 5 -14 9 -32 13
-40 10 -10 -4 -16 -1 -16 7 0 8 -5 6 -13 -6 -9 -11 -19 -15 -28 -10 -11 6 -12
5 -1 -6 15 -16 17 -38 1 -22 -14 14 -56 5 -63 -14 -4 -11 -2 -13 9 -10 8 4 21
-3 29 -15 8 -11 19 -18 24 -14 5 3 18 -1 28 -8 13 -10 24 -11 36 -5 14 8 16 6
11 -7 -5 -14 -2 -16 20 -10 15 3 29 1 33 -5 3 -6 15 -8 26 -6 11 3 21 0 24 -8
3 -7 14 -11 26 -7 14 3 19 1 14 -6 -4 -7 -3 -12 3 -12 5 0 12 6 14 13 4 9 7 9
14 0 5 -7 22 -12 38 -11 17 0 48 -3 70 -7 22 -4 51 -7 65 -7 14 0 30 -3 35 -8
9 -7 69 -19 135 -26 14 -2 72 -6 128 -9 57 -3 112 -10 122 -15 13 -7 20 -6 23
3 3 9 7 9 18 1 8 -7 41 -13 74 -14 93 -3 162 -7 270 -14 250 -17 593 -10 970
18 28 2 95 7 150 11 55 4 109 11 122 16 12 4 25 5 27 0 5 -8 76 2 151 20 22 5
69 11 105 13 74 3 138 15 145 26 2 4 21 6 42 4 21 -1 48 4 61 12 13 9 22 10
22 4 0 -7 8 -6 23 2 22 12 28 14 60 16 9 1 16 8 15 15 -2 6 3 11 11 9 7 -1 19
2 27 9 8 6 25 8 39 5 22 -6 24 -4 16 16 -5 13 -14 22 -20 20 -6 -1 -11 2 -11
7 0 15 -50 42 -63 34 -7 -4 -27 -9 -45 -10 -26 -1 -32 1 -28 13 5 12 2 12 -15
3 -26 -14 -36 -5 -18 17 13 16 12 16 -9 5 -12 -6 -27 -9 -32 -6 -5 3 -11 1
-15 -5 -9 -15 -28 -12 -22 4 4 10 -5 12 -40 9 -25 -2 -49 -6 -54 -9 -5 -3 -9
-1 -9 5 0 5 25 15 56 21 108 23 46 19 -97 -5 -681 -116 -1674 -114 -2349 5
-134 23 -153 24 -87 4z"/>
<path d="M5078 943 c7 -3 16 -2 19 1 4 3 -2 6 -13 5 -11 0 -14 -3 -6 -6z"/>
<path d="M1770 925 c-10 -12 -10 -15 3 -15 8 0 17 7 21 15 3 8 2 15 -3 15 -5
0 -14 -7 -21 -15z"/>
<path d="M5105 890 c28 -12 37 -12 30 0 -3 6 -16 10 -28 9 -21 0 -21 -1 -2 -9z"/>
<path d="M1780 876 c0 -2 11 -6 25 -8 13 -3 22 -1 19 3 -5 9 -44 13 -44 5z"/>
</g>
</svg>
